<svg xmlns="http://www.w3.org/2000/svg" xmlns:xlink="http://www.w3.org/1999/xlink" width="500" zoomAndPan="magnify" viewBox="0 0 375 374.999991" height="500" preserveAspectRatio="xMidYMid meet" version="1.0"><defs><g/><clipPath id="86bdd06862"><path d="M 128 99.429688 L 244 99.429688 L 244 137 L 128 137 Z M 128 99.429688 " clip-rule="nonzero"/></clipPath><clipPath id="7b5b45b070"><path d="M 182 132 L 252.777344 132 L 252.777344 163 L 182 163 Z M 182 132 " clip-rule="nonzero"/></clipPath><clipPath id="63afcc5e18"><path d="M 185 166 L 194 166 L 194 175.929688 L 185 175.929688 Z M 185 166 " clip-rule="nonzero"/></clipPath><clipPath id="13764b18e7"><path d="M 122.277344 132 L 209 132 L 209 173 L 122.277344 173 Z M 122.277344 132 " clip-rule="nonzero"/></clipPath></defs><g clip-path="url(#86bdd06862)"><path fill="#005337" d="M 193.121094 99.429688 C 198.878906 99.429688 222.054688 101.015625 227.320312 102.953125 C 233.257812 105.132812 242.597656 112.207031 242.597656 116.761719 C 242.597656 120.304688 242.597656 123.851562 242.597656 127.390625 C 243.339844 127.75 243.816406 128.710938 243.792969 130.191406 C 243.777344 131.878906 243.664062 136.988281 241.199219 136.988281 L 233.152344 136.988281 C 233.691406 135.753906 233.988281 134.390625 233.988281 132.957031 C 233.988281 129.289062 232.035156 126.074219 229.117188 124.300781 C 227.582031 123.371094 225.789062 122.835938 223.867188 122.835938 C 218.28125 122.835938 213.75 127.367188 213.75 132.957031 C 213.75 134.390625 214.050781 135.753906 214.585938 136.988281 L 161.140625 136.988281 C 161.679688 135.753906 161.980469 134.390625 161.980469 132.957031 C 161.980469 129.289062 160.027344 126.074219 157.105469 124.300781 C 155.574219 123.371094 153.78125 122.835938 151.859375 122.835938 C 146.269531 122.835938 141.742188 127.367188 141.742188 132.957031 C 141.742188 134.390625 142.039062 135.753906 142.578125 136.988281 L 134.625 136.988281 C 131.5625 136.527344 129.730469 135.1875 128.535156 131.273438 C 127.90625 129.210938 128.449219 128.109375 129.152344 127.679688 C 129.113281 126.734375 129.046875 125.359375 129.15625 123.570312 C 129.15625 118.332031 151.027344 113.140625 155.277344 112.386719 C 159.804688 109.921875 175.601562 99.429688 193.121094 99.429688 Z M 136.890625 120.394531 C 145.488281 119.503906 136.191406 124.679688 130.394531 126.457031 C 130.386719 125.5625 130.40625 124.722656 130.464844 123.734375 C 130.464844 121.179688 134.957031 120.59375 136.890625 120.394531 Z M 237.628906 119.632812 C 238.335938 120.347656 238.675781 121.132812 239.121094 122.003906 C 240.363281 124.449219 241.488281 123.925781 241.488281 121.296875 L 241.488281 118.125 C 241.488281 113.527344 230.636719 115.417969 231.582031 117.179688 C 232.3125 118.535156 235.738281 117.71875 237.628906 119.632812 Z M 193.121094 102.066406 C 197.199219 102.066406 206.632812 102.53125 213.65625 103.492188 C 214.226562 105.488281 214.929688 109.015625 215.195312 111.851562 L 191.84375 113.125 C 191.839844 109.730469 190.929688 104.546875 190.078125 102.171875 C 191.085938 102.105469 192.09375 102.066406 193.121094 102.066406 Z M 216.003906 103.847656 C 217.878906 104.164062 219.464844 104.523438 220.566406 104.929688 C 230.507812 108.585938 227.953125 110.902344 219.8125 111.605469 L 217.375 111.734375 C 217.15625 109.03125 216.59375 105.894531 216.003906 103.847656 Z M 189.679688 113.246094 L 157.078125 115.019531 C 161.15625 112.804688 172.871094 104.105469 187.921875 102.371094 C 188.65625 104.769531 189.707031 110.164062 189.679688 113.246094 Z M 189.679688 113.246094 " fill-opacity="1" fill-rule="evenodd"/></g><path fill="#005337" d="M 151.855469 123.824219 C 153.589844 123.824219 155.210938 124.3125 156.59375 125.148438 C 159.226562 126.75 160.988281 129.648438 160.988281 132.960938 C 160.988281 138 156.898438 142.089844 151.855469 142.089844 C 146.816406 142.089844 142.726562 137.996094 142.726562 132.960938 C 142.726562 127.914062 146.816406 123.824219 151.855469 123.824219 Z M 151.855469 127.191406 C 152.949219 127.191406 153.972656 127.496094 154.847656 128.027344 C 156.515625 129.039062 157.628906 130.867188 157.628906 132.960938 C 157.628906 136.144531 155.042969 138.726562 151.855469 138.726562 C 148.671875 138.726562 146.089844 136.144531 146.089844 132.960938 C 146.089844 129.773438 148.671875 127.191406 151.855469 127.191406 Z M 151.855469 127.191406 " fill-opacity="1" fill-rule="evenodd"/><g clip-path="url(#7b5b45b070)"><path fill="#005337" d="M 203.785156 145.691406 C 213.019531 145.816406 232.851562 144.417969 244.542969 137.289062 C 239.023438 143.285156 226.726562 146.808594 219.148438 147.851562 C 231.722656 147.914062 243.765625 141.71875 250.191406 132.75 C 243.03125 147.3125 224.785156 150.855469 213.246094 152.730469 L 213.246094 152.789062 C 217.957031 152.726562 224.90625 152.457031 232.398438 149.246094 C 242.039062 145.117188 249.65625 138.226562 252.730469 132.90625 C 248.121094 145.175781 230.097656 153.339844 220.449219 155.207031 C 225.796875 156.382812 241.78125 149.277344 248.679688 141.421875 C 241.785156 153.714844 217.699219 159.875 206.726562 162.386719 C 206.914062 161.972656 206.867188 161.292969 206.78125 160.914062 C 208.617188 161.046875 211.546875 156.402344 208.636719 154.878906 C 205.792969 153.246094 195.902344 147.652344 192.433594 145.660156 L 189.910156 147.46875 C 189.5 149.269531 188.925781 151.648438 188.515625 153.449219 C 187.941406 155.609375 182.148438 154 182.652344 151.890625 C 183.160156 149.65625 183.753906 147.261719 184.261719 145.035156 C 184.441406 144.234375 184.667969 143.828125 185.308594 143.359375 C 187.089844 142.046875 188.816406 140.757812 190.597656 139.449219 C 191.25 138.96875 192.632812 139 193.335938 139.410156 Z M 203.785156 145.691406 " fill-opacity="1" fill-rule="evenodd"/></g><path fill="#005337" d="M 183.042969 165.34375 C 182.175781 166.820312 181.3125 168.296875 180.449219 169.777344 C 180.0625 170.4375 179.191406 170.671875 178.527344 170.285156 C 177.988281 169.972656 177.449219 169.660156 176.90625 169.347656 C 176.246094 168.964844 176.007812 168.09375 176.398438 167.425781 C 177.261719 165.945312 178.125 164.46875 178.988281 162.992188 C 180.011719 161.246094 184.058594 163.605469 183.042969 165.34375 Z M 183.042969 165.34375 " fill-opacity="1" fill-rule="evenodd"/><path fill="#005337" d="M 176.910156 165.21875 C 176.542969 165.839844 176.171875 166.457031 175.800781 167.078125 C 175.414062 167.734375 174.542969 167.96875 173.882812 167.585938 C 173.34375 167.273438 172.800781 166.960938 172.261719 166.648438 C 171.601562 166.265625 171.359375 165.390625 171.753906 164.726562 C 172.121094 164.105469 172.492188 163.488281 172.859375 162.867188 C 173.894531 161.132812 177.9375 163.492188 176.910156 165.21875 Z M 176.910156 165.21875 " fill-opacity="1" fill-rule="evenodd"/><g clip-path="url(#63afcc5e18)"><path fill="#005337" d="M 192.890625 169.773438 C 191.839844 171.570312 190.789062 173.371094 189.742188 175.171875 C 189.355469 175.832031 188.480469 176.066406 187.820312 175.679688 C 187.28125 175.367188 186.738281 175.050781 186.203125 174.738281 C 185.539062 174.355469 185.300781 173.488281 185.691406 172.820312 C 186.742188 171.019531 187.792969 169.222656 188.84375 167.421875 C 189.859375 165.679688 193.90625 168.03125 192.890625 169.773438 Z M 192.890625 169.773438 " fill-opacity="1" fill-rule="evenodd"/></g><path fill="#005337" d="M 188.617188 166.433594 C 187.441406 168.445312 186.265625 170.457031 185.09375 172.472656 C 184.707031 173.132812 183.839844 173.367188 183.175781 172.980469 C 182.636719 172.667969 182.09375 172.351562 181.554688 172.039062 C 180.890625 171.652344 180.65625 170.789062 181.046875 170.117188 C 182.21875 168.105469 183.394531 166.089844 184.566406 164.078125 C 185.585938 162.335938 189.628906 164.691406 188.617188 166.433594 Z M 188.617188 166.433594 " fill-opacity="1" fill-rule="evenodd"/><g clip-path="url(#13764b18e7)"><path fill="#005337" d="M 208.324219 155.78125 C 206.730469 154.867188 196.464844 148.953125 192.5 146.675781 C 191.890625 147.109375 191.289062 147.539062 190.679688 147.972656 C 190.269531 149.773438 189.722656 152.152344 189.316406 153.953125 C 188.566406 156.824219 181.167969 154.945312 181.789062 151.871094 C 182.296875 149.640625 182.96875 146.753906 183.476562 144.519531 C 183.660156 143.71875 183.941406 143.3125 184.578125 142.84375 C 185.492188 142.167969 186.410156 141.496094 187.328125 140.820312 C 186.300781 140.214844 185.335938 139.902344 184.796875 140.207031 C 181.78125 141.941406 178.765625 143.671875 175.746094 145.402344 C 171.796875 146.160156 144.914062 146.101562 130.464844 137.292969 C 135.980469 143.289062 148.28125 146.8125 155.855469 147.855469 C 143.285156 147.914062 131.238281 141.71875 124.8125 132.753906 C 132.058594 147.488281 150.65625 150.9375 162.164062 152.796875 C 157.457031 152.742188 150.316406 152.554688 142.609375 149.253906 C 132.964844 145.121094 125.347656 138.230469 122.277344 132.910156 C 126.886719 145.179688 144.910156 153.347656 154.558594 155.210938 C 149.207031 156.386719 133.222656 149.28125 126.328125 141.429688 C 134.621094 156.214844 165.480469 161.472656 171.710938 163.105469 C 171.835938 162.894531 171.957031 162.679688 172.082031 162.472656 C 173.183594 160.277344 176.886719 161.648438 177.671875 163.535156 C 177.859375 163.210938 178.046875 162.886719 178.234375 162.5625 C 179.636719 160.195312 183.242188 162.203125 183.785156 163.671875 C 185.285156 161.007812 189.960938 163.648438 189.652344 166.003906 C 191.5 165.429688 194.902344 167.964844 193.765625 170.03125 C 193.511719 170.472656 193.253906 170.914062 193 171.355469 C 193.375 171.582031 193.753906 171.8125 194.128906 172.039062 C 195.921875 173.0625 198.300781 168.910156 196.511719 167.890625 C 195.761719 167.457031 195.015625 167.027344 194.265625 166.597656 C 194.683594 166.359375 195.117188 166.332031 195.519531 166.5625 C 196.84375 167.316406 198.164062 168.070312 199.492188 168.824219 C 201.28125 169.847656 203.660156 165.695312 201.871094 164.675781 C 200.238281 163.742188 198.605469 162.816406 196.976562 161.875 C 197.414062 161.617188 197.851562 161.601562 198.277344 161.84375 C 199.917969 162.785156 201.5625 163.722656 203.207031 164.660156 C 205 165.683594 207.378906 161.53125 205.589844 160.511719 C 203.632812 159.390625 201.671875 158.265625 199.710938 157.140625 C 200.222656 156.84375 200.636719 156.898438 201.105469 157.167969 C 202.71875 158.089844 204.328125 159.007812 205.941406 159.929688 C 207.734375 160.953125 210.113281 156.800781 208.324219 155.78125 Z M 208.324219 155.78125 " fill-opacity="1" fill-rule="evenodd"/></g><path fill="#005337" d="M 223.867188 123.824219 C 225.601562 123.824219 227.222656 124.3125 228.605469 125.148438 C 231.238281 126.75 233 129.648438 233 132.960938 C 233 138 228.914062 142.089844 223.867188 142.089844 C 218.828125 142.089844 214.738281 137.996094 214.738281 132.960938 C 214.738281 127.914062 218.824219 123.824219 223.867188 123.824219 Z M 223.867188 127.191406 C 224.964844 127.191406 225.984375 127.496094 226.859375 128.027344 C 228.527344 129.039062 229.640625 130.867188 229.640625 132.960938 C 229.640625 136.144531 227.054688 138.726562 223.871094 138.726562 C 220.6875 138.726562 218.105469 136.144531 218.105469 132.960938 C 218.101562 129.773438 220.683594 127.191406 223.867188 127.191406 Z M 223.867188 127.191406 " fill-opacity="1" fill-rule="evenodd"/><g fill="#005337" fill-opacity="1"><g transform="translate(58.242889, 240.314186)"><g><path d="M 40.421875 0 L 31.359375 0 L 28.078125 -9.171875 L 12.171875 -9.171875 L 8.953125 0 L 0.171875 0 L 14.84375 -38.921875 L 25.296875 -38.921875 Z M 14.453125 -15.734375 L 25.734375 -15.734375 L 23.40625 -22.296875 C 22.257812 -25.585938 21.203125 -28.828125 20.234375 -32.015625 L 19.84375 -32.015625 C 19.03125 -29.128906 17.992188 -25.867188 16.734375 -22.234375 Z M 14.453125 -15.734375 "/></g></g></g><g fill="#005337" fill-opacity="1"><g transform="translate(102.884745, 240.314186)"><g><path d="M 14.625 -32.6875 C 13.988281 -32.164062 13.671875 -31.203125 13.671875 -29.796875 L 13.671875 -28.6875 L 22.296875 -28.6875 L 22.296875 -23.796875 L 13.84375 -23.796875 L 13.84375 0 L 5.953125 0 L 5.953125 -23.796875 L 0.671875 -23.796875 L 0.671875 -28.6875 L 5.953125 -28.6875 L 5.953125 -29.796875 C 5.953125 -33.203125 6.835938 -35.722656 8.609375 -37.359375 C 10.359375 -38.953125 13.125 -39.75 16.90625 -39.75 C 18.34375 -39.75 20.140625 -39.710938 22.296875 -39.640625 L 22.296875 -33.359375 C 20.296875 -33.429688 18.941406 -33.46875 18.234375 -33.46875 C 16.453125 -33.46875 15.25 -33.207031 14.625 -32.6875 Z M 14.625 -32.6875 "/></g></g></g><g fill="#005337" fill-opacity="1"><g transform="translate(130.459289, 240.314186)"><g><path d="M 10.890625 -17.671875 C 11.335938 -20.609375 11.988281 -22.890625 12.84375 -24.515625 C 13.695312 -26.148438 14.9375 -27.335938 16.5625 -28.078125 C 18.15625 -28.816406 20.363281 -29.1875 23.1875 -29.1875 L 23.1875 -22.515625 C 20.070312 -22.328125 17.644531 -21.921875 15.90625 -21.296875 C 14.15625 -20.628906 12.859375 -19.570312 12.015625 -18.125 C 11.160156 -16.644531 10.675781 -14.550781 10.5625 -11.84375 L 10.5625 0 L 2.671875 0 L 2.671875 -28.6875 L 10.34375 -28.6875 L 10.5625 -17.671875 Z M 10.890625 -17.671875 "/></g></g></g><g fill="#005337" fill-opacity="1"><g transform="translate(158.700965, 240.314186)"><g><path d="M 4.0625 -33.859375 C 3.132812 -34.742188 2.671875 -35.816406 2.671875 -37.078125 C 2.671875 -38.335938 3.132812 -39.429688 4.0625 -40.359375 C 4.945312 -41.242188 6.019531 -41.6875 7.28125 -41.6875 C 8.582031 -41.6875 9.695312 -41.242188 10.625 -40.359375 C 11.507812 -39.472656 11.953125 -38.378906 11.953125 -37.078125 C 11.953125 -35.816406 11.507812 -34.742188 10.625 -33.859375 C 9.695312 -32.960938 8.582031 -32.515625 7.28125 -32.515625 C 6.019531 -32.515625 4.945312 -32.960938 4.0625 -33.859375 Z M 3.390625 0 L 3.390625 -28.6875 L 11.28125 -28.6875 L 11.28125 0 Z M 3.390625 0 "/></g></g></g><g fill="#005337" fill-opacity="1"><g transform="translate(177.43609, 240.314186)"><g><path d="M 39.25 -15.125 C 39.03125 -11.894531 38.140625 -9.078125 36.578125 -6.671875 C 35.023438 -4.265625 32.914062 -2.410156 30.25 -1.109375 C 27.570312 0.222656 24.4375 0.890625 20.84375 0.890625 C 16.882812 0.890625 13.457031 0.0703125 10.5625 -1.5625 C 7.632812 -3.1875 5.394531 -5.535156 3.84375 -8.609375 C 2.25 -11.691406 1.453125 -15.328125 1.453125 -19.515625 C 1.453125 -23.703125 2.25 -27.332031 3.84375 -30.40625 C 5.394531 -33.445312 7.632812 -35.785156 10.5625 -37.421875 C 13.457031 -39.015625 16.882812 -39.8125 20.84375 -39.8125 C 24.4375 -39.8125 27.585938 -39.160156 30.296875 -37.859375 C 32.960938 -36.523438 35.078125 -34.65625 36.640625 -32.25 C 38.191406 -29.800781 39.082031 -26.960938 39.3125 -23.734375 L 30.578125 -23.734375 C 30.273438 -26.585938 29.253906 -28.867188 27.515625 -30.578125 C 25.773438 -32.242188 23.515625 -33.078125 20.734375 -33.078125 C 17.515625 -33.078125 14.976562 -31.890625 13.125 -29.515625 C 11.226562 -27.109375 10.28125 -23.773438 10.28125 -19.515625 C 10.28125 -15.253906 11.226562 -11.914062 13.125 -9.5 C 15.007812 -7.0625 17.582031 -5.84375 20.84375 -5.84375 C 23.59375 -5.84375 25.835938 -6.691406 27.578125 -8.390625 C 29.273438 -10.054688 30.273438 -12.300781 30.578125 -15.125 Z M 39.25 -15.125 "/></g></g></g><g fill="#005337" fill-opacity="1"><g transform="translate(222.133541, 240.314186)"><g><path d="M 4.0625 -13.171875 C 5.988281 -14.660156 8.894531 -15.382812 12.78125 -15.34375 C 16.34375 -15.300781 18.828125 -15.597656 20.234375 -16.234375 C 21.640625 -16.859375 22.34375 -17.894531 22.34375 -19.34375 C 22.34375 -20.488281 21.863281 -21.488281 20.90625 -22.34375 C 19.9375 -23.195312 18.414062 -23.625 16.34375 -23.625 C 14.195312 -23.625 12.53125 -23.050781 11.34375 -21.90625 C 10.15625 -20.757812 9.46875 -19.222656 9.28125 -17.296875 L 1.453125 -17.296875 C 1.554688 -19.554688 2.179688 -21.609375 3.328125 -23.453125 C 4.441406 -25.304688 6.09375 -26.789062 8.28125 -27.90625 C 10.46875 -29.019531 13.132812 -29.578125 16.28125 -29.578125 C 20.914062 -29.578125 24.382812 -28.539062 26.6875 -26.46875 C 28.976562 -24.351562 30.125 -21.644531 30.125 -18.34375 L 30.125 0 L 22.578125 0 L 22.34375 -8.953125 L 22.078125 -8.953125 C 21.703125 -5.796875 20.515625 -3.367188 18.515625 -1.671875 C 16.515625 0.0351562 13.972656 0.890625 10.890625 0.890625 C 8.003906 0.890625 5.671875 0.203125 3.890625 -1.171875 C 2.078125 -2.503906 1.171875 -4.46875 1.171875 -7.0625 C 1.171875 -9.65625 2.132812 -11.691406 4.0625 -13.171875 Z M 10.34375 -5.21875 C 11.082031 -4.59375 12.175781 -4.28125 13.625 -4.28125 C 15.175781 -4.28125 16.617188 -4.648438 17.953125 -5.390625 C 19.285156 -6.128906 20.363281 -7.113281 21.1875 -8.34375 C 21.957031 -9.5625 22.34375 -10.859375 22.34375 -12.234375 L 22.34375 -16.625 L 22.078125 -16.625 C 21.890625 -15.394531 21.515625 -14.410156 20.953125 -13.671875 C 20.359375 -12.929688 19.453125 -12.359375 18.234375 -11.953125 C 16.972656 -11.546875 15.234375 -11.269531 13.015625 -11.125 C 11.828125 -11.039062 10.898438 -10.707031 10.234375 -10.125 C 9.523438 -9.53125 9.171875 -8.734375 9.171875 -7.734375 C 9.171875 -6.648438 9.5625 -5.8125 10.34375 -5.21875 Z M 10.34375 -5.21875 "/></g></g></g><g fill="#005337" fill-opacity="1"><g transform="translate(258.992266, 240.314186)"><g><path d="M 10.890625 -17.671875 C 11.335938 -20.609375 11.988281 -22.890625 12.84375 -24.515625 C 13.695312 -26.148438 14.9375 -27.335938 16.5625 -28.078125 C 18.15625 -28.816406 20.363281 -29.1875 23.1875 -29.1875 L 23.1875 -22.515625 C 20.070312 -22.328125 17.644531 -21.921875 15.90625 -21.296875 C 14.15625 -20.628906 12.859375 -19.570312 12.015625 -18.125 C 11.160156 -16.644531 10.675781 -14.550781 10.5625 -11.84375 L 10.5625 0 L 2.671875 0 L 2.671875 -28.6875 L 10.34375 -28.6875 L 10.5625 -17.671875 Z M 10.890625 -17.671875 "/></g></g></g><g fill="#005337" fill-opacity="1"><g transform="translate(287.233952, 240.314186)"><g><path d="M 4.671875 -1.78125 C 2.179688 -3.5625 0.898438 -6.097656 0.828125 -9.390625 L 8.609375 -9.390625 C 8.691406 -7.835938 9.320312 -6.65625 10.5 -5.84375 C 11.65625 -5.019531 13.304688 -4.609375 15.453125 -4.609375 C 17.160156 -4.609375 18.492188 -4.90625 19.453125 -5.5 C 20.421875 -6.0625 20.90625 -6.859375 20.90625 -7.890625 C 20.90625 -8.628906 20.625 -9.242188 20.0625 -9.734375 C 19.476562 -10.210938 18.460938 -10.597656 17.015625 -10.890625 L 10.453125 -12.28125 C 7.554688 -12.84375 5.332031 -13.84375 3.78125 -15.28125 C 2.226562 -16.695312 1.453125 -18.5 1.453125 -20.6875 C 1.453125 -23.351562 2.617188 -25.5 4.953125 -27.125 C 7.285156 -28.757812 10.4375 -29.578125 14.40625 -29.578125 C 18.8125 -29.578125 22.21875 -28.671875 24.625 -26.859375 C 27.03125 -25.035156 28.234375 -22.476562 28.234375 -19.1875 L 20.796875 -19.1875 C 20.796875 -20.738281 20.273438 -21.941406 19.234375 -22.796875 C 18.160156 -23.648438 16.675781 -24.078125 14.78125 -24.078125 C 13.039062 -24.078125 11.691406 -23.796875 10.734375 -23.234375 C 9.734375 -22.679688 9.234375 -21.90625 9.234375 -20.90625 C 9.234375 -20.164062 9.546875 -19.535156 10.171875 -19.015625 C 10.804688 -18.492188 11.710938 -18.101562 12.890625 -17.84375 L 20.015625 -16.28125 C 22.941406 -15.65625 25.128906 -14.675781 26.578125 -13.34375 C 28.015625 -12.007812 28.734375 -10.285156 28.734375 -8.171875 C 28.734375 -5.285156 27.566406 -3.0625 25.234375 -1.5 C 22.898438 0.09375 19.582031 0.890625 15.28125 0.890625 C 10.6875 0.890625 7.148438 0 4.671875 -1.78125 Z M 4.671875 -1.78125 "/></g></g></g></svg>